<svg width="28" height="28" viewBox="0 0 28 28" fill="none" xmlns="http://www.w3.org/2000/svg">
<rect width="28" height="28" rx="4" fill="#83D187"/>
<path d="M22.8737 17.805V18.7839C22.8737 19.4317 22.4432 19.9857 21.8399 20.202C21.8402 20.2266 21.8408 20.2511 21.8408 20.2758V22.945C23.0952 22.6978 24.0408 21.6397 24.0408 20.3758V17.8048L22.8737 17.805Z" fill="#DDFFDF"/>
<path d="M14.7675 10.4484V9.42486C14.7675 8.53887 14.4219 7.68013 13.794 7.00651C13.2062 6.37594 12.4331 5.97528 11.5976 5.86409C11.4127 5.69406 11.075 5.38385 10.7364 5.07422C10.4436 4.80633 10.2096 4.59295 10.0403 4.44002C9.94329 4.35232 9.86196 4.27926 9.80428 4.22838C9.67809 4.11705 9.44341 3.90962 9.09566 4.04371L8.7235 4.1875L8.77233 6.38566L8.68062 6.44857C8.08217 6.85938 7.68132 7.49169 7.57833 8.18575L5.98195 9.19742L5.97661 9.89249C5.9728 10.4226 6.18703 10.9216 6.5801 11.2977C6.97332 11.6739 7.497 11.881 8.05501 11.881H9.27068V12.9002C9.27068 13.4066 9.35628 13.9068 9.52474 14.3872L10.4259 16.9554V20.8566C9.48049 21.0676 8.77309 21.8752 8.77095 22.8364L8.76897 22.9983L12.2484 22.9988C12.3436 22.1331 13.0121 21.4263 13.8855 21.229V20.5487C13.8855 18.6874 15.4793 17.1733 17.4384 17.1733H17.5243V18.2821H17.4384C16.1229 18.2821 15.0527 19.2988 15.0527 20.5487V22.2827H14.3812C13.9194 22.2827 13.5311 22.589 13.4295 22.9989L20.7081 23.0001V20.2759C20.7081 17.8558 19.7532 15.5465 18.0193 13.7735L14.7675 10.4484Z" fill="#DDFFDF"/>
</svg>
